<mxfile host="app.diagrams.net" agent="Mozilla/5.0 (Windows NT 10.0; Win64; x64) AppleWebKit/537.36 (KHTML, like Gecko) Chrome/129.0.0.0 Safari/537.36 Edg/129.0.0.0" version="24.7.6">
  <diagram name="Страница — 1" id="b1Tlu6HkWUmnyaQjPJUp">
    <mxGraphModel dx="1683" dy="653" grid="1" gridSize="10" guides="1" tooltips="1" connect="1" arrows="1" fold="1" page="1" pageScale="1" pageWidth="827" pageHeight="1169" math="0" shadow="0">
      <root>
        <mxCell id="0" />
        <mxCell id="1" parent="0" />
        <mxCell id="yvnha7ZV8xZI8trLpszh-1" value="Интернет&lt;div&gt;магазин&lt;/div&gt;" style="rounded=0;whiteSpace=wrap;html=1;" vertex="1" parent="1">
          <mxGeometry x="265" y="390" width="120" height="60" as="geometry" />
        </mxCell>
        <mxCell id="yvnha7ZV8xZI8trLpszh-2" value="Ассортимент" style="rounded=0;whiteSpace=wrap;html=1;" vertex="1" parent="1">
          <mxGeometry x="455" y="390" width="120" height="60" as="geometry" />
        </mxCell>
        <mxCell id="yvnha7ZV8xZI8trLpszh-3" value="Категория" style="rounded=0;whiteSpace=wrap;html=1;" vertex="1" parent="1">
          <mxGeometry x="640" y="390" width="120" height="60" as="geometry" />
        </mxCell>
        <mxCell id="yvnha7ZV8xZI8trLpszh-4" value="Отзыв" style="rounded=0;whiteSpace=wrap;html=1;" vertex="1" parent="1">
          <mxGeometry x="455" y="526" width="120" height="60" as="geometry" />
        </mxCell>
        <object label="Продукт" id="yvnha7ZV8xZI8trLpszh-5">
          <mxCell style="swimlane;fontStyle=0;childLayout=stackLayout;horizontal=1;startSize=30;horizontalStack=0;resizeParent=1;resizeParentMax=0;resizeLast=0;collapsible=1;marginBottom=0;whiteSpace=wrap;html=1;glass=0;" vertex="1" parent="1">
            <mxGeometry x="652" y="540" width="170" height="120" as="geometry">
              <mxRectangle x="620" y="430" width="90" height="30" as="alternateBounds" />
            </mxGeometry>
          </mxCell>
        </object>
        <mxCell id="yvnha7ZV8xZI8trLpszh-6" value="+ цена: Real" style="text;strokeColor=none;fillColor=none;align=left;verticalAlign=middle;spacingLeft=4;spacingRight=4;overflow=hidden;points=[[0,0.5],[1,0.5]];portConstraint=eastwest;rotatable=0;whiteSpace=wrap;html=1;" vertex="1" parent="yvnha7ZV8xZI8trLpszh-5">
          <mxGeometry y="30" width="170" height="30" as="geometry" />
        </mxCell>
        <mxCell id="yvnha7ZV8xZI8trLpszh-7" value="+ дата_изготовления: String" style="text;strokeColor=none;fillColor=none;align=left;verticalAlign=middle;spacingLeft=4;spacingRight=4;overflow=hidden;points=[[0,0.5],[1,0.5]];portConstraint=eastwest;rotatable=0;whiteSpace=wrap;html=1;" vertex="1" parent="yvnha7ZV8xZI8trLpszh-5">
          <mxGeometry y="60" width="170" height="30" as="geometry" />
        </mxCell>
        <mxCell id="yvnha7ZV8xZI8trLpszh-8" value="+ количество: Integer&amp;nbsp;" style="text;strokeColor=none;fillColor=none;align=left;verticalAlign=middle;spacingLeft=4;spacingRight=4;overflow=hidden;points=[[0,0.5],[1,0.5]];portConstraint=eastwest;rotatable=0;whiteSpace=wrap;html=1;" vertex="1" parent="yvnha7ZV8xZI8trLpszh-5">
          <mxGeometry y="90" width="170" height="30" as="geometry" />
        </mxCell>
        <mxCell id="yvnha7ZV8xZI8trLpszh-9" value="Заказ" style="swimlane;fontStyle=0;childLayout=stackLayout;horizontal=1;startSize=30;horizontalStack=0;resizeParent=1;resizeParentMax=0;resizeLast=0;collapsible=1;marginBottom=0;whiteSpace=wrap;html=1;" vertex="1" parent="1">
          <mxGeometry x="5" y="540" width="180" height="146" as="geometry" />
        </mxCell>
        <mxCell id="yvnha7ZV8xZI8trLpszh-10" value="+ сумма: Real" style="text;strokeColor=none;fillColor=none;align=left;verticalAlign=middle;spacingLeft=4;spacingRight=4;overflow=hidden;points=[[0,0.5],[1,0.5]];portConstraint=eastwest;rotatable=0;whiteSpace=wrap;html=1;" vertex="1" parent="yvnha7ZV8xZI8trLpszh-9">
          <mxGeometry y="30" width="180" height="30" as="geometry" />
        </mxCell>
        <mxCell id="yvnha7ZV8xZI8trLpszh-11" value="+ дата_время: String" style="text;strokeColor=none;fillColor=none;align=left;verticalAlign=middle;spacingLeft=4;spacingRight=4;overflow=hidden;points=[[0,0.5],[1,0.5]];portConstraint=eastwest;rotatable=0;whiteSpace=wrap;html=1;" vertex="1" parent="yvnha7ZV8xZI8trLpszh-9">
          <mxGeometry y="60" width="180" height="30" as="geometry" />
        </mxCell>
        <mxCell id="yvnha7ZV8xZI8trLpszh-12" value="+ статус_оплаты: String" style="text;strokeColor=none;fillColor=none;align=left;verticalAlign=middle;spacingLeft=4;spacingRight=4;overflow=hidden;points=[[0,0.5],[1,0.5]];portConstraint=eastwest;rotatable=0;whiteSpace=wrap;html=1;" vertex="1" parent="yvnha7ZV8xZI8trLpszh-9">
          <mxGeometry y="90" width="180" height="30" as="geometry" />
        </mxCell>
        <mxCell id="yvnha7ZV8xZI8trLpszh-13" value="+ адрес: String" style="text;strokeColor=none;fillColor=none;align=left;verticalAlign=top;spacingLeft=4;spacingRight=4;overflow=hidden;rotatable=0;points=[[0,0.5],[1,0.5]];portConstraint=eastwest;whiteSpace=wrap;html=1;" vertex="1" parent="yvnha7ZV8xZI8trLpszh-9">
          <mxGeometry y="120" width="180" height="26" as="geometry" />
        </mxCell>
        <mxCell id="yvnha7ZV8xZI8trLpszh-14" value="Покупатель" style="rounded=0;whiteSpace=wrap;html=1;" vertex="1" parent="1">
          <mxGeometry x="265" y="526" width="120" height="60" as="geometry" />
        </mxCell>
        <mxCell id="yvnha7ZV8xZI8trLpszh-16" value="" style="endArrow=diamondThin;endFill=1;endSize=24;html=1;rounded=0;entryX=1;entryY=0.5;entryDx=0;entryDy=0;exitX=0;exitY=0.5;exitDx=0;exitDy=0;" edge="1" parent="1" source="yvnha7ZV8xZI8trLpszh-2" target="yvnha7ZV8xZI8trLpszh-1">
          <mxGeometry width="160" relative="1" as="geometry">
            <mxPoint x="445" y="600" as="sourcePoint" />
            <mxPoint x="605" y="600" as="targetPoint" />
          </mxGeometry>
        </mxCell>
        <mxCell id="yvnha7ZV8xZI8trLpszh-17" value="&lt;span style=&quot;color: rgb(0, 0, 0); font-family: Helvetica; font-size: 12px; font-style: normal; font-variant-ligatures: normal; font-variant-caps: normal; font-weight: 400; letter-spacing: normal; orphans: 2; text-align: center; text-indent: 0px; text-transform: none; widows: 2; word-spacing: 0px; -webkit-text-stroke-width: 0px; white-space: normal; background-color: rgb(251, 251, 251); text-decoration-thickness: initial; text-decoration-style: initial; text-decoration-color: initial; display: inline !important; float: none;&quot;&gt;1&lt;/span&gt;" style="text;whiteSpace=wrap;html=1;" vertex="1" parent="1">
          <mxGeometry x="435" y="390" width="10" height="30" as="geometry" />
        </mxCell>
        <mxCell id="yvnha7ZV8xZI8trLpszh-18" value="" style="endArrow=diamondThin;endFill=0;endSize=24;html=1;rounded=0;exitX=0;exitY=0.5;exitDx=0;exitDy=0;entryX=1;entryY=0.5;entryDx=0;entryDy=0;" edge="1" parent="1" source="yvnha7ZV8xZI8trLpszh-3" target="yvnha7ZV8xZI8trLpszh-2">
          <mxGeometry width="160" relative="1" as="geometry">
            <mxPoint x="391" y="600" as="sourcePoint" />
            <mxPoint x="551" y="600" as="targetPoint" />
          </mxGeometry>
        </mxCell>
        <mxCell id="yvnha7ZV8xZI8trLpszh-19" value="" style="endArrow=diamondThin;endFill=0;endSize=24;html=1;rounded=0;exitX=0.434;exitY=-0.018;exitDx=0;exitDy=0;entryX=0.7;entryY=1.012;entryDx=0;entryDy=0;exitPerimeter=0;entryPerimeter=0;" edge="1" parent="1" source="yvnha7ZV8xZI8trLpszh-5" target="yvnha7ZV8xZI8trLpszh-3">
          <mxGeometry width="160" relative="1" as="geometry">
            <mxPoint x="405" y="600" as="sourcePoint" />
            <mxPoint x="725" y="470" as="targetPoint" />
            <Array as="points" />
          </mxGeometry>
        </mxCell>
        <mxCell id="yvnha7ZV8xZI8trLpszh-20" value="" style="endArrow=diamondThin;endFill=1;endSize=24;html=1;rounded=0;exitX=1;exitY=0.5;exitDx=0;exitDy=0;entryX=-0.001;entryY=0.14;entryDx=0;entryDy=0;entryPerimeter=0;" edge="1" parent="1" source="yvnha7ZV8xZI8trLpszh-4" target="yvnha7ZV8xZI8trLpszh-5">
          <mxGeometry width="160" relative="1" as="geometry">
            <mxPoint x="485" y="600" as="sourcePoint" />
            <mxPoint x="755" y="550" as="targetPoint" />
          </mxGeometry>
        </mxCell>
        <mxCell id="yvnha7ZV8xZI8trLpszh-21" value="" style="endArrow=open;endFill=1;endSize=12;html=1;rounded=0;exitX=0;exitY=0.5;exitDx=0;exitDy=0;entryX=1;entryY=0.5;entryDx=0;entryDy=0;" edge="1" parent="1" source="yvnha7ZV8xZI8trLpszh-4" target="yvnha7ZV8xZI8trLpszh-14">
          <mxGeometry width="160" relative="1" as="geometry">
            <mxPoint x="525" y="660" as="sourcePoint" />
            <mxPoint x="685" y="660" as="targetPoint" />
          </mxGeometry>
        </mxCell>
        <mxCell id="yvnha7ZV8xZI8trLpszh-23" value="" style="endArrow=diamondThin;endFill=1;endSize=24;html=1;rounded=0;entryX=0.5;entryY=1;entryDx=0;entryDy=0;exitX=0.5;exitY=0;exitDx=0;exitDy=0;" edge="1" parent="1" source="yvnha7ZV8xZI8trLpszh-14" target="yvnha7ZV8xZI8trLpszh-1">
          <mxGeometry width="160" relative="1" as="geometry">
            <mxPoint x="525" y="660" as="sourcePoint" />
            <mxPoint x="685" y="660" as="targetPoint" />
          </mxGeometry>
        </mxCell>
        <mxCell id="yvnha7ZV8xZI8trLpszh-25" value="" style="endArrow=diamondThin;endFill=1;endSize=24;html=1;rounded=0;exitX=0.5;exitY=0;exitDx=0;exitDy=0;entryX=0.48;entryY=0.973;entryDx=0;entryDy=0;entryPerimeter=0;" edge="1" parent="1" source="yvnha7ZV8xZI8trLpszh-37" target="yvnha7ZV8xZI8trLpszh-36">
          <mxGeometry width="160" relative="1" as="geometry">
            <mxPoint x="838.5200000000004" y="261.3399999999999" as="sourcePoint" />
            <mxPoint x="385" y="710" as="targetPoint" />
          </mxGeometry>
        </mxCell>
        <mxCell id="yvnha7ZV8xZI8trLpszh-26" value="" style="endArrow=open;endFill=1;endSize=12;html=1;rounded=0;entryX=1;entryY=0.25;entryDx=0;entryDy=0;exitX=0.002;exitY=0.429;exitDx=0;exitDy=0;exitPerimeter=0;" edge="1" parent="1" source="yvnha7ZV8xZI8trLpszh-8" target="yvnha7ZV8xZI8trLpszh-33">
          <mxGeometry width="160" relative="1" as="geometry">
            <mxPoint x="635" y="620" as="sourcePoint" />
            <mxPoint x="845" y="380" as="targetPoint" />
          </mxGeometry>
        </mxCell>
        <mxCell id="yvnha7ZV8xZI8trLpszh-29" value="" style="endArrow=open;endFill=1;endSize=12;html=1;rounded=0;exitX=0.5;exitY=1;exitDx=0;exitDy=0;entryX=0.782;entryY=-0.015;entryDx=0;entryDy=0;entryPerimeter=0;" edge="1" parent="1" source="yvnha7ZV8xZI8trLpszh-38" target="yvnha7ZV8xZI8trLpszh-9">
          <mxGeometry width="160" relative="1" as="geometry">
            <mxPoint x="223.55999999999995" y="610.5000000000002" as="sourcePoint" />
            <mxPoint x="495" y="680" as="targetPoint" />
          </mxGeometry>
        </mxCell>
        <mxCell id="yvnha7ZV8xZI8trLpszh-30" value="" style="endArrow=diamondThin;endFill=1;endSize=24;html=1;rounded=0;entryX=0.5;entryY=0;entryDx=0;entryDy=0;exitX=0.5;exitY=0;exitDx=0;exitDy=0;" edge="1" parent="1" source="yvnha7ZV8xZI8trLpszh-39" target="yvnha7ZV8xZI8trLpszh-1">
          <mxGeometry width="160" relative="1" as="geometry">
            <mxPoint x="25" y="330" as="sourcePoint" />
            <mxPoint x="675" y="520" as="targetPoint" />
            <Array as="points">
              <mxPoint x="40" y="330" />
              <mxPoint x="325" y="330" />
            </Array>
          </mxGeometry>
        </mxCell>
        <mxCell id="yvnha7ZV8xZI8trLpszh-32" value="Работник цеха" style="html=1;whiteSpace=wrap;" vertex="1" parent="1">
          <mxGeometry x="458.75" y="742" width="110" height="50" as="geometry" />
        </mxCell>
        <mxCell id="yvnha7ZV8xZI8trLpszh-33" value="Цех" style="swimlane;fontStyle=0;childLayout=stackLayout;horizontal=1;startSize=26;fillColor=none;horizontalStack=0;resizeParent=1;resizeParentMax=0;resizeLast=0;collapsible=1;marginBottom=0;whiteSpace=wrap;html=1;" vertex="1" parent="1">
          <mxGeometry x="441.25" y="630" width="145" height="52" as="geometry">
            <mxRectangle x="576.25" y="680" width="60" height="30" as="alternateBounds" />
          </mxGeometry>
        </mxCell>
        <mxCell id="yvnha7ZV8xZI8trLpszh-34" value="- полезный объём: Real" style="text;strokeColor=none;fillColor=none;align=left;verticalAlign=top;spacingLeft=4;spacingRight=4;overflow=hidden;rotatable=0;points=[[0,0.5],[1,0.5]];portConstraint=eastwest;whiteSpace=wrap;html=1;" vertex="1" parent="yvnha7ZV8xZI8trLpszh-33">
          <mxGeometry y="26" width="145" height="26" as="geometry" />
        </mxCell>
        <mxCell id="yvnha7ZV8xZI8trLpszh-37" value="Птицевод" style="html=1;whiteSpace=wrap;" vertex="1" parent="1">
          <mxGeometry x="255" y="742" width="110" height="50" as="geometry" />
        </mxCell>
        <mxCell id="yvnha7ZV8xZI8trLpszh-38" value="Менеджер" style="html=1;whiteSpace=wrap;" vertex="1" parent="1">
          <mxGeometry x="105" y="395" width="80" height="50" as="geometry" />
        </mxCell>
        <mxCell id="yvnha7ZV8xZI8trLpszh-39" value="Курьер" style="html=1;whiteSpace=wrap;" vertex="1" parent="1">
          <mxGeometry x="5" y="395" width="70" height="50" as="geometry" />
        </mxCell>
        <mxCell id="yvnha7ZV8xZI8trLpszh-40" value="" style="endArrow=diamondThin;endFill=1;endSize=24;html=1;rounded=0;entryX=0.492;entryY=1.072;entryDx=0;entryDy=0;exitX=0.5;exitY=0;exitDx=0;exitDy=0;entryPerimeter=0;" edge="1" parent="1" source="yvnha7ZV8xZI8trLpszh-32" target="yvnha7ZV8xZI8trLpszh-34">
          <mxGeometry width="160" relative="1" as="geometry">
            <mxPoint x="585" y="700" as="sourcePoint" />
            <mxPoint x="515" y="700" as="targetPoint" />
          </mxGeometry>
        </mxCell>
        <mxCell id="yvnha7ZV8xZI8trLpszh-41" value="" style="endArrow=diamondThin;endFill=1;endSize=24;html=1;rounded=0;entryX=0;entryY=0.5;entryDx=0;entryDy=0;exitX=0.998;exitY=0.103;exitDx=0;exitDy=0;exitPerimeter=0;" edge="1" parent="1" source="yvnha7ZV8xZI8trLpszh-9" target="yvnha7ZV8xZI8trLpszh-14">
          <mxGeometry width="160" relative="1" as="geometry">
            <mxPoint x="185" y="670" as="sourcePoint" />
            <mxPoint x="385" y="571" as="targetPoint" />
            <Array as="points" />
          </mxGeometry>
        </mxCell>
        <mxCell id="yvnha7ZV8xZI8trLpszh-35" value="Курятник" style="swimlane;fontStyle=0;childLayout=stackLayout;horizontal=1;startSize=26;fillColor=none;horizontalStack=0;resizeParent=1;resizeParentMax=0;resizeLast=0;collapsible=1;marginBottom=0;whiteSpace=wrap;html=1;" vertex="1" parent="1">
          <mxGeometry x="243.75" y="630" width="140" height="52" as="geometry" />
        </mxCell>
        <mxCell id="yvnha7ZV8xZI8trLpszh-36" value="+ поголовье: Integer" style="text;strokeColor=none;fillColor=none;align=left;verticalAlign=top;spacingLeft=4;spacingRight=4;overflow=hidden;rotatable=0;points=[[0,0.5],[1,0.5]];portConstraint=eastwest;whiteSpace=wrap;html=1;" vertex="1" parent="yvnha7ZV8xZI8trLpszh-35">
          <mxGeometry y="26" width="140" height="26" as="geometry" />
        </mxCell>
        <mxCell id="yvnha7ZV8xZI8trLpszh-42" value="" style="endArrow=open;endFill=1;endSize=12;html=1;rounded=0;exitX=0;exitY=0.25;exitDx=0;exitDy=0;entryX=1;entryY=0.25;entryDx=0;entryDy=0;" edge="1" parent="1" source="yvnha7ZV8xZI8trLpszh-33" target="yvnha7ZV8xZI8trLpszh-35">
          <mxGeometry width="160" relative="1" as="geometry">
            <mxPoint x="430" y="700" as="sourcePoint" />
            <mxPoint x="360" y="610" as="targetPoint" />
          </mxGeometry>
        </mxCell>
        <mxCell id="yvnha7ZV8xZI8trLpszh-43" value="" style="endArrow=diamondThin;endFill=1;endSize=24;html=1;rounded=0;entryX=0;entryY=0.5;entryDx=0;entryDy=0;exitX=1;exitY=0.5;exitDx=0;exitDy=0;" edge="1" parent="1" source="yvnha7ZV8xZI8trLpszh-38" target="yvnha7ZV8xZI8trLpszh-1">
          <mxGeometry width="160" relative="1" as="geometry">
            <mxPoint x="165" y="414.5" as="sourcePoint" />
            <mxPoint x="255" y="415.5" as="targetPoint" />
            <Array as="points" />
          </mxGeometry>
        </mxCell>
        <mxCell id="yvnha7ZV8xZI8trLpszh-44" value="" style="endArrow=open;endFill=1;endSize=12;html=1;rounded=0;exitX=0.5;exitY=1;exitDx=0;exitDy=0;entryX=0.19;entryY=0.005;entryDx=0;entryDy=0;entryPerimeter=0;" edge="1" parent="1" source="yvnha7ZV8xZI8trLpszh-39" target="yvnha7ZV8xZI8trLpszh-9">
          <mxGeometry width="160" relative="1" as="geometry">
            <mxPoint x="1.5" y="480" as="sourcePoint" />
            <mxPoint x="58.5" y="480" as="targetPoint" />
          </mxGeometry>
        </mxCell>
      </root>
    </mxGraphModel>
  </diagram>
</mxfile>
